<svg xmlns="http://www.w3.org/2000/svg" viewBox="0 0 48 48" width="48" height="48">
  <defs>
    <linearGradient id="grad" x1="0" y1="0" x2="1" y2="1">
      <stop offset="0%" stop-color="#7AA3D6"/>
      <stop offset="100%" stop-color="#3E6FA9"/>
    </linearGradient>
  </defs>
  <rect width="48" height="48" rx="12" fill="url(#grad)"/>
  <!-- Stylized Open Book Symbol -->
  <path d="M14 14c0-2 1.5-3.5 3.5-3.5S21 12 21 14v20c0 2-1.5 3.5-3.5 3.5S14 36 14 34V14z" fill="#FFF" opacity="0.8"/>
  <path d="M34 14c0-2-1.5-3.5-3.5-3.5S27 12 27 14v20c0 2 1.5 3.5 3.5 3.5s3.5-1.5 3.5-3.5V14z" fill="#FFF" opacity="0.9"/>
  <path d="M21 16h6M21 22h6M21 28h6" stroke="#3E6FA9" stroke-width="2" stroke-linecap="round" opacity="0.7"/>
</svg>